# xmcd
#
# Track frame offsets: 
#        150
#        47676
#        64897
#        93405
#        125394
#        155552
#        193382
#        214789
#        244856
#        277775
#        310033
#
# Disc length: 4490 seconds
#
# Revision: 2
# Processed by: cddbd v1.5.2PL0 Copyright (c) Steve Scherf et al.
# Submitted via: ExactAudioCopyFreeDBPlugin 1.0
#
DISCID=9b11880b
DTITLE=Hazell Dean - Always (Deluxe Edition) CD2
DYEAR=2012
DGENRE=Pop
TTITLE0=E.S.P. (Extra Sensual Persuasion) (Extended Version)
TTITLE1=Image In The Mirror
TTITLE2=They Say It's Gonna Rain (Indian Summer Mix)
TTITLE3=Always Doesn't Mean Forever (My-Ami Mix)
TTITLE4=Maybe (We Should Call It a Day (Extended Version)
TTITLE5=Walk In My Shoes (Nightmare Mix)
TTITLE6=Who's Leaving Who (Bob's Tambourine Mix)
TTITLE7=Maybe (We Should Call It a Day (Extra Beat Boys Remix)
TTITLE8=Turn It Into Love (House Mix)
TTITLE9=They Say It's Gonna Rain (Zulu Mix)
TTITLE10=Turn It Into Love (Alternative 12" Mix)
EXTD=YEAR: 2012
EXTT0=
EXTT1=
EXTT2=
EXTT3=
EXTT4=
EXTT5=
EXTT6=
EXTT7=
EXTT8=
EXTT9=
EXTT10=
PLAYORDER=
